HIERARCHY
ROOT hip
{
  OFFSET 0 0 0
  CHANNELS 6 Xposition Yposition Zposition Zrotation Yrotation Xrotation
  JOINT abdomen
  {
    OFFSET 0 20.6881 -0.73152
    CHANNELS 3 Zrotation Xrotation Yrotation
    JOINT chest
    {
      OFFSET 0 11.7043 -0.48768
      CHANNELS 3 Zrotation Xrotation Yrotation
      JOINT neck
      {
        OFFSET 0 22.1894 -2.19456
        CHANNELS 3 Zrotation Xrotation Yrotation
        JOINT head
        {
          OFFSET -0.24384 7.07133 1.2192
          CHANNELS 3 Zrotation Xrotation Yrotation
          JOINT leftEye
          {
            OFFSET 4.14528 8.04674 8.04672
            CHANNELS 3 Zrotation Xrotation Yrotation
            End Site
            {
              OFFSET 1 0 0
            }
          }
          JOINT rightEye
          {
            OFFSET -3.6576 8.04674 8.04672
            CHANNELS 3 Zrotation Xrotation Yrotation
            End Site
            {
              OFFSET 1 0 0
            }
          }
        }
      }
      JOINT rCollar
      {
        OFFSET -2.68224 19.2634 -4.8768
        CHANNELS 3 Zrotation Xrotation Yrotation
        JOINT rShldr
        {
          OFFSET -8.77824 -1.95073 1.46304
          CHANNELS 3 Zrotation Xrotation Yrotation
          JOINT rForeArm
          {
            OFFSET -28.1742 -1.7115 0.48768
            CHANNELS 3 Zrotation Xrotation Yrotation
            JOINT rHand
            {
              OFFSET -22.5879 0.773209 7.07136
              CHANNELS 3 Zrotation Xrotation Yrotation
              JOINT rThumb1
              {
                OFFSET -1.2192 -0.487915 3.41376
                CHANNELS 3 Zrotation Xrotation Yrotation
                JOINT rThumb2
                {
                  OFFSET -3.37035 -0.52449 3.41376
                  CHANNELS 3 Zrotation Xrotation Yrotation
                  End Site
                  {
                    OFFSET -1.78271 -1.18214 1.43049
                  }
                }
              }
              JOINT rIndex1
              {
                OFFSET -7.75947 0.938293 5.60832
                CHANNELS 3 Zrotation Xrotation Yrotation
                JOINT rIndex2
                {
                  OFFSET -2.54057 -0.884171 1.56538
                  CHANNELS 3 Zrotation Xrotation Yrotation
                  End Site
                  {
                    OFFSET -1.62519 -0.234802 1.16502
                  }
                }
              }
              JOINT rMid1
              {
                OFFSET -8.24714 1.18213 3.41376
                CHANNELS 3 Zrotation Xrotation Yrotation
                JOINT rMid2
                {
                  OFFSET -3.10165 -0.590103 1.0647
                  CHANNELS 3 Zrotation Xrotation Yrotation
                  End Site
                  {
                    OFFSET -2.48547 -0.328903 0.83742
                  }
                }
              }
              JOINT rRing1
              {
                OFFSET -8.82822 0.546677 1.51678
                CHANNELS 3 Zrotation Xrotation Yrotation
                JOINT rRing2
                {
                  OFFSET -2.60934 -0.819778 -0.0198488
                  CHANNELS 3 Zrotation Xrotation Yrotation
                  End Site
                  {
                    OFFSET -2.33842 -0.294052 0.168128
                  }
                }
              }
              JOINT rPinky1
              {
                OFFSET -8.27202 -0.0477905 -0.4584
                CHANNELS 3 Zrotation Xrotation Yrotation
                JOINT rPinky2
                {
                  OFFSET -1.82734 -0.647385 -0.700984
                  CHANNELS 3 Zrotation Xrotation Yrotation
                  End Site
                  {
                    OFFSET -1.69225 -0.51767 -0.607171
                  }
                }
              }
            }
          }
        }
      }
      JOINT lCollar
      {
        OFFSET 2.68224 19.2634 -4.8768
        CHANNELS 3 Zrotation Xrotation Yrotation
        JOINT lShldr
        {
          OFFSET 8.77824 -1.95073 1.46304
          CHANNELS 3 Zrotation Xrotation Yrotation
          JOINT lForeArm
          {
            OFFSET 28.1742 -1.7115 0.48768
            CHANNELS 3 Zrotation Xrotation Yrotation
            JOINT lHand
            {
              OFFSET 22.5879 0.773209 7.07136
              CHANNELS 3 Zrotation Xrotation Yrotation
              JOINT lThumb1
              {
                OFFSET 1.2192 -0.487915 3.41376
                CHANNELS 3 Zrotation Xrotation Yrotation
                JOINT lThumb2
                {
                  OFFSET 3.37035 -0.52449 3.41376
                  CHANNELS 3 Zrotation Xrotation Yrotation
                  End Site
                  {
                    OFFSET 1.78271 -1.18214 1.43049
                  }
                }
              }
              JOINT lIndex1
              {
                OFFSET 7.75947 0.938293 5.60832
                CHANNELS 3 Zrotation Xrotation Yrotation
                JOINT lIndex2
                {
                  OFFSET 2.54057 -0.884171 1.56538
                  CHANNELS 3 Zrotation Xrotation Yrotation
                  End Site
                  {
                    OFFSET 1.62519 -0.234802 1.16502
                  }
                }
              }
              JOINT lMid1
              {
                OFFSET 8.24714 1.18213 3.41376
                CHANNELS 3 Zrotation Xrotation Yrotation
                JOINT lMid2
                {
                  OFFSET 3.10165 -0.590103 1.0647
                  CHANNELS 3 Zrotation Xrotation Yrotation
                  End Site
                  {
                    OFFSET 2.48547 -0.328903 0.83742
                  }
                }
              }
              JOINT lRing1
              {
                OFFSET 8.82822 0.546677 1.51678
                CHANNELS 3 Zrotation Xrotation Yrotation
                JOINT lRing2
                {
                  OFFSET 2.60934 -0.819778 -0.0198488
                  CHANNELS 3 Zrotation Xrotation Yrotation
                  End Site
                  {
                    OFFSET 2.33842 -0.294052 0.168128
                  }
                }
              }
              JOINT lPinky1
              {
                OFFSET 8.27202 -0.0477905 -0.4584
                CHANNELS 3 Zrotation Xrotation Yrotation
                JOINT lPinky2
                {
                  OFFSET 1.82734 -0.647385 -0.700984
                  CHANNELS 3 Zrotation Xrotation Yrotation
                  End Site
                  {
                    OFFSET 1.69225 -0.51767 -0.607171
                  }
                }
              }
            }
          }
        }
      }
    }
  }
  JOINT rButtock
  {
    OFFSET -8.77824 4.35084 1.2192
    CHANNELS 3 Zrotation Xrotation Yrotation
    JOINT rThigh
    {
      OFFSET 0 -1.70687 -2.19456
      CHANNELS 3 Zrotation Xrotation Yrotation
      JOINT rShin
      {
        OFFSET 0 -36.8199 0.73152
        CHANNELS 3 Zrotation Xrotation Yrotation
        JOINT rFoot
        {
          OFFSET 0.73152 -45.1104 -5.12064
          CHANNELS 3 Zrotation Xrotation Yrotation
          End Site
          {
            OFFSET -1.1221 -3.69964 12.103
          }
        }
      }
    }
  }
  JOINT lButtock
  {
    OFFSET 8.77824 4.35084 1.2192
    CHANNELS 3 Zrotation Xrotation Yrotation
    JOINT lThigh
    {
      OFFSET 0 -1.70687 -2.19456
      CHANNELS 3 Zrotation Xrotation Yrotation
      JOINT lShin
      {
        OFFSET 0 -36.8199 0.73152
        CHANNELS 3 Zrotation Xrotation Yrotation
        JOINT lFoot
        {
          OFFSET -0.73152 -45.1104 -5.12064
          CHANNELS 3 Zrotation Xrotation Yrotation
          End Site
          {
            OFFSET 1.1221 -3.69964 12.103
          }
        }
      }
    }
  }
}
MOTION
Frames:	7
Frame Time:	0.00833333
53.7807 85.1388 60.694 0.0 0.0 0.0 0.41059 -0.00336424 0.0117806 0.113459 -0.0053952 0.0196593 -1.191e-14 -7.95139e-16 3.106e-17 -3.56694e-14 3.18055e-15 1.0871e-16 -0.0 0.0 0.0 -0.0 0.0 0.0 -5.86561e-15 9.12391e-18 1.49089e-16 -1.22915e-13 4.34841e-17 7.95139e-16 -2.1516e-12 6.48237e-13 6.36111e-15 -2.46569e-11 -6.22047e-13 3.81667e-14 -5.81573e-11 5.99792e-14 1.24042e-13 -1.00446e-10 1.04958e-13 2.0276e-13 -5.81525e-11 6.04305e-14 1.17681e-13 7.73091 5.47488 0.417314 -5.81575e-11 6.01324e-14 1.20861e-13 2.90554 0.965183 0.102902 -5.815e-11 6.03311e-14 1.19271e-13 10.2786 0.731801 0.0259123 -5.8164e-11 6.2816e-14 1.24042e-13 2.22167 -0.733487 -0.20892 -5.96247e-15 9.70628e-18 -1.49089e-16 -1.26437e-13 -7.45443e-17 -9.93923e-16 -2.15806e-12 -6.38695e-13 2.22639e-14 -2.46518e-11 6.73656e-13 2.8625e-14 -5.81546e-11 7.95336e-14 1.24042e-13 -1.00424e-10 1.39944e-13 2.17073e-13 -5.81592e-11 7.95139e-14 1.27222e-13 -7.73091 5.47488 -0.417314 -5.8156e-11 7.93151e-14 1.17681e-13 -2.90554 0.965183 -0.102902 -5.81583e-11 7.97127e-14 1.23246e-13 -10.2786 0.731801 -0.0259123 -5.81501e-11 8.07066e-14 1.17681e-13 -2.22167 -0.733487 0.20892 -2.03217e-16 0.0 -3.88251e-19 0.770608 -4.17183 -0.0656817 -0.0026549 2.00555 -0.0182705 -0.461833 2.16687 0.0961014 2.03217e-16 0.0 3.88251e-19 -0.143231 -2.55995 0.0260684 0.00716318 -0.91409 0.0621716 0.45377 3.47457 -0.121225
54.596 83.4651 55.0927 -179.492 -3.2489 -153.004 -1.07223 -8.99779 -0.859608 0.792246 3.39766 -0.373745 -0.190433 4.68377 -1.07308 2.59727 -13.399 -1.47842 -0.0 0.0 0.0 -0.0 0.0 0.0 -2.43234e-15 -6.51579e-15 -1.81356e-14 22.9781 2.65024 -0.0617894 -4.00532 -1.77925 6.29936 1.59783e-05 -0.105713 -0.014857 -2.2362e-11 -3.62733e-10 2.72585e-10 -3.80859e-11 -6.27717e-10 4.71483e-10 -2.23485e-11 -3.62734e-10 2.72574e-10 7.73091 5.47488 0.417314 -2.23622e-11 -3.62734e-10 2.72579e-10 2.90554 0.965183 0.102902 -2.23542e-11 -3.62733e-10 2.72578e-10 10.2786 0.731801 0.0259123 -2.23681e-11 -3.6273e-10 2.72583e-10 2.22167 -0.733487 -0.20892 -2.50405e-15 -6.51563e-15 -1.83919e-14 -21.3407 3.86846 -1.11324 1.97778 -0.680759 -3.28526 -0.0328241 4.02547 -0.56073 2.03018e-10 2.32219e-13 -4.85475e-10 3.4506e-10 -2.37148e-12 -8.4236e-10 2.03013e-10 2.32007e-13 -4.85471e-10 -7.73091 5.47488 -0.417314 2.03018e-10 2.3059e-13 -4.85478e-10 -2.90554 0.965183 -0.102902 2.03013e-10 2.30734e-13 -4.85475e-10 -10.2786 0.731801 -0.0259123 2.03024e-10 2.3213e-13 -4.8548e-10 -2.22167 -0.733487 0.20892 -2.03217e-16 0.0 -3.88251e-19 0.219496 -11.3695 2.6334 0.00339408 4.35017 0.0466092 -0.665785 -2.82555 -2.16924 2.03217e-16 0.0 3.88251e-19 0.374581 -9.34363 -2.5839 0.0050182 1.05104 0.0252391 0.501059 1.3587 1.12755
54.5874 83.4687 55.0872 -179.534 -3.3117 -153.027 -2.95536 -18.4976 -1.85491 1.56864 6.99123 -0.794753 -0.201916 9.62622 -2.23008 4.50341 -27.5308 -3.33425 -0.0 0.0 0.0 -0.0 0.0 0.0 1.26669e-15 -1.34135e-14 -3.82319e-14 47.2695 5.45391 -0.132817 -7.81761 -3.58898 12.9792 -3.20669e-05 -0.224104 -0.0314958 1.29798e-11 -7.66752e-10 5.88854e-10 2.35716e-11 -1.32688e-09 1.01857e-09 1.30031e-11 -7.66754e-10 5.8884e-10 7.73091 5.47488 0.417314 1.29797e-11 -7.66753e-10 5.88846e-10 2.90554 0.965183 0.102902 1.29882e-11 -7.66753e-10 5.88846e-10 10.2786 0.731801 0.0259123 1.29744e-11 -7.66749e-10 5.88851e-10 2.22167 -0.733487 -0.20892 1.22441e-15 -1.34139e-14 -3.84431e-14 -43.7421 7.9309 -2.30159 3.97771 -1.3901 -6.74958 0.0191254 8.30258 -1.166 4.95555e-10 -4.53169e-12 -1.04441e-09 8.43893e-10 -1.37855e-11 -1.81213e-09 4.95549e-10 -4.53209e-12 -1.04441e-09 -7.73091 5.47488 -0.417314 4.95555e-10 -4.53483e-12 -1.04441e-09 -2.90554 0.965183 -0.102902 4.95547e-10 -4.53494e-12 -1.04441e-09 -10.2786 0.731801 -0.0259123 4.95561e-10 -4.53309e-12 -1.04442e-09 -2.22167 -0.733487 0.20892 -2.03217e-16 0.0 -3.88251e-19 0.412006 -18.914 5.68897 0.00400187 6.82981 0.115781 -1.31469 -8.08291 -4.60813 2.03217e-16 0.0 3.88251e-19 0.22298 -16.4615 -5.5021 0.00538054 3.12988 -0.0138647 0.651804 -0.878572 2.45164
54.5901 83.4664 55.0879 -179.526 -3.2835 -153.024 -4.94309 -26.9603 -2.88434 2.2919 10.2019 -1.1772 -0.0315065 14.0313 -3.30728 5.18085 -40.0727 -5.64198 -0.0 0.0 0.0 -0.0 0.0 0.0 4.4342e-15 -1.95656e-14 -5.4705e-14 68.9516 7.95068 -0.186967 -10.862 -5.08018 18.9663 -0.000116538 -0.31714 -0.0445716 4.92286e-11 -1.08832e-09 8.17506e-10 8.66347e-11 -1.88336e-09 1.41404e-09 4.92596e-11 -1.08832e-09 8.17488e-10 7.73091 5.47488 0.417314 4.92284e-11 -1.08832e-09 8.17496e-10 2.90554 0.965183 0.102902 4.92373e-11 -1.08832e-09 8.17496e-10 10.2786 0.731801 0.0259123 4.92238e-11 -1.08832e-09 8.17502e-10 2.22167 -0.733487 -0.20892 4.41279e-15 -1.95663e-14 -5.48774e-14 -63.5635 11.5877 -3.40152 5.70029 -2.01544 -9.86126 0.142414 12.0717 -1.716 7.25365e-10 5.37589e-13 -1.45667e-09 1.23603e-09 -7.39432e-12 -2.52751e-09 7.25358e-10 5.36993e-13 -1.45667e-09 -7.73091 5.47488 -0.417314 7.25365e-10 5.33138e-13 -1.45667e-09 -2.90554 0.965183 -0.102902 7.25356e-10 5.3278e-13 -1.45667e-09 -10.2786 0.731801 -0.0259123 7.25371e-10 5.34978e-13 -1.45668e-09 -2.22167 -0.733487 0.20892 -2.03217e-16 0.0 -3.88251e-19 1.33916 -25.5389 8.73531 -0.000613758 9.03938 0.178156 -2.27857 -12.7277 -6.86125 2.03217e-16 0.0 3.88251e-19 -0.573977 -22.7205 -8.35317 0.00833875 4.98129 -0.0488071 0.872241 -2.86654 3.62825
54.592 83.4647 55.1143 -179.518 -3.2381 -153.023 -6.52765 -32.8553 -3.73412 2.78127 12.457 -1.44736 0.209812 17.1118 -4.10187 4.72258 -48.7504 -8.01176 -0.0 0.0 0.0 -0.0 0.0 0.0 6.27288e-15 -2.38538e-14 -6.21202e-14 84.0955 9.68026 -0.197082 -12.7932 -6.02077 23.1562 -0.0001475 -0.346792 -0.048739 8.77448e-11 -1.20375e-09 8.27113e-10 1.53212e-10 -2.08313e-09 1.43047e-09 8.77785e-11 -1.20376e-09 8.27094e-10 7.73091 5.47488 0.417314 8.77443e-11 -1.20376e-09 8.27103e-10 2.90554 0.965183 0.102902 8.77531e-11 -1.20376e-09 8.27103e-10 10.2786 0.731801 0.0259123 8.77406e-11 -1.20375e-09 8.2711e-10 2.22167 -0.733487 -0.20892 6.25097e-15 -2.38542e-14 -6.22693e-14 -77.2534 14.2465 -4.22402 6.89071 -2.45568 -12.0863 0.267859 14.5755 -2.09429 7.98358e-10 3.01898e-11 -1.50225e-09 1.36142e-09 4.351e-11 -2.60695e-09 7.98351e-10 3.0189e-11 -1.50224e-09 -7.73091 5.47488 -0.417314 7.98359e-10 3.01846e-11 -1.50224e-09 -2.90554 0.965183 -0.102902 7.98349e-10 3.0184e-11 -1.50225e-09 -10.2786 0.731801 -0.0259123 7.98365e-10 3.01862e-11 -1.50225e-09 -2.22167 -0.733487 0.20892 -2.03217e-16 0.0 -3.88251e-19 2.47408 -30.073 11.1243 -0.00683129 10.5739 0.221946 -3.1682 -15.9234 -8.48418 2.03217e-16 0.0 3.88251e-19 -1.53626 -27.0108 -10.5323 0.0123901 6.26414 -0.0730873 1.06986 -4.23899 4.4288
54.5962 83.4673 55.1335 -179.495 -3.2421 -153.043 -7.16235 -35.1769 -4.10891 2.87121 13.3758 -1.54709 0.380034 18.3567 -4.44609 4.20714 -52.1337 -9.27664 -0.0 0.0 0.0 -0.0 0.0 0.0 3.10535e-15 -2.3054e-14 -5.52831e-14 90.1014 10.3344 -0.14035 -13.5039 -6.35914 24.7907 -5.16722e-05 -0.273449 -0.038431 2.03775e-10 -1.02499e-09 4.87489e-10 3.53139e-10 -1.77378e-09 8.42451e-10 2.03804e-10 -1.025e-09 4.87471e-10 7.73091 5.47488 0.417314 2.03774e-10 -1.02499e-09 4.87481e-10 2.90554 0.965183 0.102902 2.03782e-10 -1.02499e-09 4.87481e-10 10.2786 0.731801 0.0259123 2.03772e-10 -1.02499e-09 4.87488e-10 2.22167 -0.733487 -0.20892 3.04203e-15 -2.30528e-14 -5.54341e-14 -82.4842 15.5309 -4.61582 7.40695 -2.65412 -13.0668 0.314339 15.2851 -2.20452 6.66848e-10 1.39376e-10 -9.08886e-10 1.14073e-09 2.35276e-10 -1.57912e-09 6.66842e-10 1.39375e-10 -9.08881e-10 -7.73091 5.47488 -0.417314 6.66849e-10 1.39371e-10 -9.08881e-10 -2.90554 0.965183 -0.102902 6.6684e-10 1.3937e-10 -9.08885e-10 -10.2786 0.731801 -0.0259123 6.66855e-10 1.39372e-10 -9.08891e-10 -2.22167 -0.733487 0.20892 -2.03217e-16 0.0 -3.88251e-19 3.05175 -31.8381 12.1337 -0.0101718 11.1601 0.238587 -3.54997 -17.1482 -9.09601 2.03217e-16 0.0 3.88251e-19 -1.9875 -28.6777 -11.3954 0.015846 6.74532 -0.0820796 1.14634 -4.75023 4.68411
54.5989 83.4693 55.1587 -179.483 -3.2578 -153.022 -7.00971 -34.953 -4.06781 2.666 13.3405 -1.52177 0.453163 18.2945 -4.44957 4.25265 -51.786 -9.22235 -0.0 0.0 0.0 -0.0 0.0 0.0 -3.48825e-15 -1.87381e-14 -3.83406e-14 89.5792 10.2205 -0.0359796 -13.4168 -6.31543 24.5903 5.27832e-05 -0.127219 -0.0178793 3.71633e-10 -6.36358e-10 -9.95594e-11 6.42202e-10 -1.10125e-09 -1.73792e-10 3.71651e-10 -6.36358e-10 -9.9573e-11 7.73091 5.47488 0.417314 3.71631e-10 -6.36357e-10 -9.95629e-11 2.90554 0.965183 0.102902 3.71637e-10 -6.36357e-10 -9.95646e-11 10.2786 0.731801 0.0259123 3.7163e-10 -6.36356e-10 -9.95565e-11 2.22167 -0.733487 -0.20892 -3.62167e-15 -1.87344e-14 -3.85114e-14 -81.7136 15.837 -4.68636 7.45912 -2.68531 -13.1574 0.288469 14.715 -2.11783 3.88548e-10 3.03224e-10 1.34882e-10 6.71528e-10 5.23916e-10 2.29299e-10 3.88544e-10 3.03222e-10 1.34884e-10 -7.73091 5.47488 -0.417314 3.88549e-10 3.03219e-10 1.34884e-10 -2.90554 0.965183 -0.102902 3.88542e-10 3.03217e-10 1.3488e-10 -10.2786 0.731801 -0.0259123 3.88554e-10 3.03219e-10 1.34874e-10 -2.22167 -0.733487 0.20892 -2.03217e-16 0.0 -3.88251e-19 3.0039 -31.6744 12.0141 -0.0102515 11.0692 0.23555 -3.47308 -16.9834 -8.94777 2.03217e-16 0.0 3.88251e-19 -1.88456 -28.5109 -11.2075 0.0183141 6.65415 -0.0800829 1.11727 -4.64839 4.54793
